<?xml version="1.0" standalone="no"?>
<!DOCTYPE svg PUBLIC "-//W3C//DTD SVG 20010904//EN"
 "http://www.w3.org/TR/2001/REC-SVG-20010904/DTD/svg10.dtd">
<svg version="1.0" xmlns="http://www.w3.org/2000/svg"
 width="512.000000pt" height="512.000000pt" viewBox="0 0 512.000000 512.000000"
 preserveAspectRatio="xMidYMid meet">
<metadata>
Created by potrace 1.11, written by Peter Selinger 2001-2013
</metadata>
<g transform="translate(0.000000,512.000000) scale(0.100000,-0.100000)"
fill="#000000" stroke="none">
<path d="M4510 3277 c-19 -5 -57 -15 -85 -23 -87 -24 -758 -206 -774 -209 -9
-2 -83 -22 -165 -45 -83 -23 -258 -70 -390 -106 -133 -35 -263 -71 -291 -79
-27 -8 -59 -17 -71 -19 -12 -2 -54 -14 -94 -26 -40 -12 -81 -24 -91 -26 -11
-2 -29 -6 -40 -9 -20 -4 -159 -42 -239 -65 -98 -29 -711 -193 -750 -201 -119
-25 -259 -11 -355 35 -65 32 -127 95 -158 159 -32 66 -40 106 -39 186 2 97 18
166 71 299 11 28 19 52 17 52 -6 0 -142 -175 -204 -263 -73 -103 -173 -274
-198 -337 -9 -25 -20 -49 -24 -55 -9 -13 -45 -125 -59 -186 -6 -25 -9 -84 -7
-130 3 -106 37 -181 110 -245 156 -136 363 -171 616 -104 50 13 229 75 275 95
17 8 269 116 560 240 292 125 558 240 593 256 35 16 65 29 67 29 4 0 614 264
683 296 29 13 55 24 58 24 3 0 29 11 57 24 29 13 169 74 312 136 143 62 278
120 300 130 22 10 110 48 195 85 85 36 159 70 163 75 15 13 -6 17 -43 7z"/>
</g>
</svg>
