<svg xmlns="http://www.w3.org/2000/svg" width="17" height="17" viewBox="0 0 17 17">
    <path fill="#000" fill-rule="evenodd" d="M11.773 10.355l4.727 4.727-1.418 1.418-4.684-4.727v-.73l-.3-.258c-1.146.974-2.478 1.461-3.996 1.461-1.69 0-3.13-.594-4.319-1.783S0 7.835 0 6.145c0-1.69.594-3.137 1.783-4.34C2.972.602 4.397 0 6.06 0c1.69 0 3.13.602 4.318 1.805 1.189 1.203 1.783 2.65 1.783 4.34 0 1.518-.487 2.85-1.46 3.996l.3.214h.773zm-8.68-1.203c.831.802 1.834 1.203 3.009 1.203 1.174 0 2.177-.408 3.007-1.224.831-.817 1.246-1.812 1.246-2.986 0-1.175-.415-2.178-1.246-3.008-.83-.831-1.833-1.246-3.007-1.246-1.175 0-2.17.415-2.987 1.246-.816.83-1.224 1.833-1.224 3.008 0 1.174.4 2.177 1.203 3.007z"/>
</svg>
